<svg width="46" height="46" viewBox=" 0 0 30 46" fill="none" xmlns="http://www.w3.org/2000/svg" xmlns:xlink="http://www.w3.org/1999/xlink">
<rect width="46" height="46" fill="url(#pattern0)"/>
<path d="M12.0352 0.333182C11.98 -0.111061 11.2487 -0.111061 11.1936 0.333182C9.36185 15.0753 0 18.1124 0 28.3582C0 34.6879 5.31597 39.8201 11.6142 39.8201C17.9124 39.8201 23.2283 34.6879 23.2283 28.3582C23.2283 18.1124 13.8665 15.0753 12.0352 0.333182ZM10.2665 16.6291C10.1433 17.0833 10.0114 17.5512 9.87578 18.0336C9.04329 20.9882 8.10005 24.3364 8.10005 28.2113C8.10005 30.3081 6.86066 31.0543 5.7009 31.0543C4.37813 31.0543 3.30257 29.9692 3.30257 28.6357C3.30257 24.0589 5.50719 21.0686 7.45256 18.4301C8.06189 17.6043 8.6368 16.8236 9.10468 16.0455C9.31871 15.6904 9.89403 15.7054 10.1553 16.0575C10.279 16.2251 10.3196 16.4337 10.2665 16.6291Z" fill="#333333"/>
<defs>
<pattern id="pattern0" patternContentUnits="objectBoundingBox" width="1" height="1">
<use xlink:href="#image0_247_96" transform="translate(-0.0344828) scale(0.00208782 0.00195312)"/>
</pattern>
</defs>
</svg>
