<?xml version="1.0" standalone="no"?>
<!DOCTYPE svg PUBLIC "-//W3C//DTD SVG 20010904//EN"
 "http://www.w3.org/TR/2001/REC-SVG-20010904/DTD/svg10.dtd">
<svg version="1.0" xmlns="http://www.w3.org/2000/svg"
 width="100pt" height="100pt" viewBox="0 0 840.000000 592.000000"
 preserveAspectRatio="xMidYMid meet">

<g transform="translate(0.000000,592.000000) scale(0.100000,-0.100000)"
fill="#333333" stroke="none">
<path d="M3999 4906 c-2 -2 -44 -6 -94 -9 -422 -26 -862 -115 -1135 -229 -121
-50 -383 -185 -440 -225 -216 -155 -354 -277 -450 -398 -87 -110 -158 -233
-192 -334 l-33 -96 -1 -360 c-2 -380 3 -461 37 -563 28 -83 107 -200 172 -255
62 -51 161 -100 237 -116 30 -7 71 -16 90 -21 19 -5 132 -14 250 -20 118 -6
235 -15 260 -21 25 -5 69 -14 99 -20 29 -5 73 -19 97 -29 23 -11 48 -20 55
-20 16 0 155 -76 207 -114 77 -55 166 -127 207 -165 147 -136 465 -421 470
-421 4 0 14 -8 23 -17 48 -47 323 -233 346 -233 3 0 27 -13 54 -29 27 -16 60
-32 73 -36 13 -4 47 -18 74 -30 173 -78 465 -135 670 -130 183 4 241 11 400
52 549 140 1020 533 1190 993 15 41 31 84 36 95 4 11 16 65 26 120 15 85 18
163 18 520 0 439 -6 523 -46 650 -11 33 -22 73 -25 88 -2 15 -9 36 -14 45 -5
9 -32 67 -61 127 -29 61 -64 126 -79 145 -15 19 -29 42 -32 50 -10 25 -113
158 -170 218 -67 71 -246 236 -261 241 -7 2 -14 7 -17 10 -11 14 -111 88 -156
116 -101 61 -249 145 -257 145 -5 0 -20 9 -34 20 -14 11 -32 20 -39 20 -7 0
-37 11 -66 24 -29 13 -78 32 -108 41 -30 9 -64 20 -75 25 -54 22 -285 77 -385
90 -36 5 -76 12 -90 16 -14 3 -50 8 -80 10 -30 2 -71 7 -90 11 -19 3 -53 8
-75 9 -77 5 -583 13 -586 10z m536 -146 c66 -5 153 -12 193 -15 41 -3 82 -10
92 -15 10 -6 36 -10 57 -10 21 0 56 -5 78 -11 22 -6 65 -15 95 -20 57 -10 101
-22 210 -58 36 -12 80 -26 98 -31 121 -31 450 -221 636 -367 81 -64 241 -227
301 -307 28 -37 62 -81 76 -99 42 -52 179 -326 179 -358 0 -9 7 -33 15 -53 34
-80 54 -351 35 -461 -32 -181 -70 -285 -155 -429 -139 -237 -279 -378 -530
-536 -111 -69 -202 -117 -285 -148 -135 -51 -282 -92 -331 -92 -20 0 -49 -4
-65 -10 -72 -24 -460 -9 -515 20 -10 6 -29 10 -42 10 -13 0 -50 9 -83 21 -32
11 -77 25 -99 30 -21 6 -55 18 -75 29 -19 10 -55 26 -79 35 -25 9 -57 25 -72
36 -15 10 -32 19 -37 19 -6 0 -33 16 -62 35 -29 19 -55 35 -59 35 -3 0 -28 17
-56 38 -27 20 -62 45 -76 54 -51 32 -309 258 -399 348 -14 14 -59 54 -100 90
-40 36 -81 72 -89 80 -9 8 -32 26 -51 40 -19 14 -47 35 -61 48 -76 67 -240
150 -374 190 -114 34 -240 51 -415 58 -91 3 -168 8 -173 11 -4 2 -31 6 -61 8
-81 7 -209 60 -276 116 -59 49 -135 152 -147 198 -3 14 -13 37 -22 50 -12 19
-16 53 -16 150 0 124 1 127 38 215 22 49 50 106 63 127 13 21 24 41 24 44 0 6
19 29 114 138 180 207 527 434 831 544 150 55 233 81 270 87 21 4 57 13 79 20
23 8 75 19 116 25 41 7 95 16 120 21 55 11 120 20 180 25 25 1 79 8 120 14 41
6 84 9 95 7 12 -3 34 -2 50 3 40 12 491 12 640 1z"/>
<path d="M3915 4564 c-22 -2 -89 -9 -150 -14 -302 -29 -603 -92 -810 -169
-470 -177 -870 -510 -942 -783 -17 -65 -17 -71 0 -133 22 -87 66 -149 125
-179 64 -32 125 -44 272 -51 455 -22 670 -81 926 -254 127 -85 197 -143 428
-355 221 -203 335 -298 449 -374 284 -192 584 -282 892 -269 221 10 356 46
580 157 482 239 761 673 706 1095 -32 237 -157 478 -359 687 -176 182 -342
303 -567 414 -209 103 -447 168 -765 210 -118 16 -675 28 -785 18z m1370
-1279 c87 -23 158 -60 210 -111 60 -58 85 -113 85 -189 0 -76 -25 -131 -83
-187 -108 -105 -305 -153 -479 -117 -176 37 -318 172 -318 304 0 125 118 248
285 296 77 22 222 24 300 4z"/>
</g>
</svg>
