<svg width="20" height="24" viewBox="0 0 20 24" fill="none" xmlns="http://www.w3.org/2000/svg">
<path fill-rule="evenodd" clip-rule="evenodd" d="M9.99995 0.799988C6.90716 0.799988 4.39995 3.30719 4.39995 6.39999V7.79999H2.99995C2.2866 7.79999 1.6873 8.33638 1.60852 9.04539L0.20852 21.6454C0.164546 22.0412 0.291204 22.437 0.556784 22.7336C0.822364 23.0304 1.20174 23.2 1.59995 23.2H18.4C18.7981 23.2 19.1775 23.0304 19.4431 22.7336C19.7087 22.437 19.8354 22.0412 19.7914 21.6454L18.3914 9.04539C18.3126 8.33638 17.7134 7.79999 17 7.79999H15.5999V6.39999C15.5999 3.30719 13.0927 0.799988 9.99995 0.799988ZM12.7999 7.79999V6.39999C12.7999 4.85359 11.5464 3.59999 9.99995 3.59999C8.45355 3.59999 7.19995 4.85359 7.19995 6.39999V7.79999H12.7999ZM4.39995 12C4.39995 11.2268 5.02676 10.6 5.79995 10.6C6.57314 10.6 7.19995 11.2268 7.19995 12C7.19995 12.7732 6.57314 13.4 5.79995 13.4C5.02676 13.4 4.39995 12.7732 4.39995 12ZM14.1999 10.6C13.4267 10.6 12.7999 11.2268 12.7999 12C12.7999 12.7732 13.4267 13.4 14.1999 13.4C14.9732 13.4 15.5999 12.7732 15.5999 12C15.5999 11.2268 14.9732 10.6 14.1999 10.6Z" fill="#F6F6FA"/>
</svg>
