<svg width="22" height="58" viewBox="0 0 22 58" fill="none" xmlns="http://www.w3.org/2000/svg">
<g opacity="0.2">
<path opacity="0.2" d="M21.1499 53.9297V24.7139C21.1499 21.6657 19.9775 18.8051 17.8203 16.6479C17.2107 16.0382 16.7886 15.3348 16.5072 14.5845V16.4603C16.5072 18.3361 15.7569 20.1181 14.4439 21.4781C12.8025 23.1194 11.9115 25.2297 11.9115 27.5276V54.1173C11.9115 55.8055 13.2715 57.1655 14.9597 57.1655H20.0244C20.7278 56.3214 21.1499 55.1959 21.1499 53.9297Z" fill="#333333"/>
</g>
<g opacity="0.2">
<path opacity="0.2" d="M16.0382 8.53497C16.0382 8.53497 16.0382 8.58186 16.0851 8.58186V5.67435C16.0382 5.76814 16.0382 5.86193 16.0382 6.00261V8.30049C15.9913 8.34739 16.0382 8.39428 16.0382 8.53497C16.0382 8.48807 16.0382 8.48807 16.0382 8.53497Z" fill="#333333"/>
</g>
<g opacity="0.2">
<path opacity="0.2" d="M9.2384 54.1642V27.5745C9.2384 25.2766 8.34739 23.1194 6.70605 21.525C5.34608 20.165 4.64265 18.383 4.64265 16.5072V14.5845C4.36128 15.3348 3.89232 16.0382 3.32957 16.6479C1.17238 18.8051 0 21.6657 0 24.7139V53.9297C0 55.149 0.42206 56.2745 1.12549 57.2124H6.1902C7.87843 57.2124 9.2384 55.8524 9.2384 54.1642Z" fill="#333333"/>
</g>
<g opacity="0.2">
<path opacity="0.2" d="M5.06471 8.48807C5.06471 8.44118 5.11161 8.34739 5.11161 8.30049V6.00261C5.11161 5.90882 5.06471 5.76814 5.06471 5.67435V8.58186C5.01782 8.53497 5.01782 8.53497 5.06471 8.48807Z" fill="#333333"/>
</g>
<path d="M15.8507 56.4621H5.25232C3.84546 56.4621 2.71997 55.3366 2.71997 53.9297V24.7139C2.71997 22.416 3.61098 20.2119 5.25232 18.6175C6.84677 17.023 7.78468 14.8189 7.78468 12.5211V3.47025H7.26883V0.937897H13.8342V3.47025H13.3183V12.5211C13.3183 14.8189 14.2094 17.023 15.8507 18.6175C17.4451 20.2119 18.383 22.416 18.383 24.7139V53.9297C18.383 55.3366 17.2576 56.4621 15.8507 56.4621Z" fill="#333333"/>
<path d="M15.8507 56.4621H5.25232C3.84546 56.4621 2.71997 55.3366 2.71997 53.9297V24.7139C2.71997 22.416 3.61098 20.2119 5.25232 18.6175C6.84677 17.023 7.78468 14.819 7.78468 12.5211V8.53497H13.3183V12.5211C13.3183 14.819 14.2094 17.023 15.8507 18.6175C17.4451 20.2119 18.383 22.416 18.383 24.7139V53.9297C18.383 55.3366 17.2576 56.4621 15.8507 56.4621Z" fill="#242424"/>
<g opacity="0.2">
<g opacity="0.2">
<path opacity="0.2" d="M15.8507 18.6175C14.2563 17.023 13.3184 14.8189 13.3184 12.5211V0.937897H11.3019V12.5211C11.3019 14.8189 11.7239 17.023 13.3184 18.6175C14.9128 20.2119 14.819 22.416 14.819 24.7139V53.9297C14.819 55.3366 13.6935 56.4621 12.2867 56.4621H15.8038C17.2107 56.4621 18.3362 55.3366 18.3362 53.9297V24.7139C18.3831 22.416 17.4921 20.2119 15.8507 18.6175Z" fill="#333333"/>
</g>
</g>
<path d="M18.383 31.2324H2.71997V46.3796H18.383V31.2324Z" fill="#333333"/>
<path d="M18.3831 47.3175H2.72001C2.20416 47.3175 1.7821 46.8954 1.7821 46.3796C1.7821 45.8637 2.20416 45.4417 2.72001 45.4417H18.3831C18.8989 45.4417 19.321 45.8637 19.321 46.3796C19.321 46.8954 18.8989 47.3175 18.3831 47.3175Z" fill="#333333"/>
<path d="M18.3831 32.1703H2.72001C2.20416 32.1703 1.7821 31.7482 1.7821 31.2324C1.7821 30.7165 2.20416 30.2944 2.72001 30.2944H18.3831C18.8989 30.2944 19.321 30.7165 19.321 31.2324C19.321 31.7482 18.8989 32.1703 18.3831 32.1703Z" fill="#333333"/>
<path d="M15.8507 57.4H5.25237C3.32965 57.4 1.7821 55.8525 1.7821 53.9297V24.7139C1.7821 22.1815 2.76691 19.743 4.59583 17.9609C6.04959 16.5072 6.84681 14.5845 6.84681 12.5211V4.31438C6.56544 4.17369 6.33096 3.84542 6.33096 3.47026V0.937909C6.33096 0.422059 6.75302 0 7.26887 0H13.8342C14.3501 0 14.7721 0.422059 14.7721 0.937909V3.47026C14.7721 3.84542 14.5846 4.1268 14.2563 4.31438V12.5211C14.2563 14.5845 15.0535 16.5072 16.5073 17.9609C18.2893 19.743 19.321 22.1815 19.321 24.7139V53.9297C19.321 55.8525 17.7734 57.4 15.8507 57.4ZM8.20678 2.62614C8.48815 2.76683 8.72263 3.0951 8.72263 3.47026V12.5211C8.72263 15.0534 7.73782 17.492 5.9089 19.274C4.45514 20.7278 3.65792 22.6505 3.65792 24.7139V53.9297C3.65792 54.8208 4.36135 55.5242 5.25237 55.5242H15.8507C16.7417 55.5242 17.4452 54.8208 17.4452 53.9297V24.7139C17.4452 22.6505 16.648 20.7278 15.1942 19.274C13.4122 17.492 12.3805 15.0534 12.3805 12.5211V3.47026C12.3805 3.0951 12.5681 2.81373 12.8963 2.62614V1.87582H8.20678V2.62614Z" fill="#333333"/>
<path d="M13.8342 4.40817H7.26884C6.75299 4.40817 6.33093 3.98611 6.33093 3.47026C6.33093 2.95441 6.75299 2.53235 7.26884 2.53235H13.8342C14.35 2.53235 14.7721 2.95441 14.7721 3.47026C14.7721 3.98611 14.35 4.40817 13.8342 4.40817Z" fill="#333333"/>
<path d="M12.4998 19H12.9998C13.4995 19 13.9998 19 14.9998 20.5C15.9998 22 15.9998 22.5 15.9998 23C15.9998 23.5 15.4998 23.5 15.4998 23.5C15.0484 21.3594 14.3588 20.377 12.4998 19Z" fill="#658280" stroke="#658280" stroke-width="0.1"/>
</svg>
