<svg width="44" height="49" viewBox="0 0 44 49" fill="none" xmlns="http://www.w3.org/2000/svg">
<g clip-path="url(#clip0_247_104)">
<path fill-rule="evenodd" clip-rule="evenodd" d="M38.8422 9.8H37.5467L39.2822 4.9735C39.8689 3.381 39.0378 1.617 37.4489 1.0535C35.86 0.465496 34.1 1.2985 33.5133 2.891L31.02 9.8H5.13335C1.78446 9.8 -0.562206 13.083 0.488905 16.2435L4.8889 29.4L0.51335 42.5565C-0.562206 45.717 1.80891 49 5.13335 49H38.8178C42.1422 49 44.5133 45.717 43.4622 42.5565L39.1111 29.4L43.4622 16.2435C44.5133 13.083 42.1667 9.8 38.8422 9.8ZM29.3333 31.85H24.4445V36.75C24.4445 38.0975 23.3445 39.2 22 39.2C20.6556 39.2 19.5556 38.0975 19.5556 36.75V31.85H14.6667C13.3222 31.85 12.2222 30.7475 12.2222 29.4C12.2222 28.0525 13.3222 26.95 14.6667 26.95H19.5556V22.05C19.5556 20.7025 20.6556 19.6 22 19.6C23.3445 19.6 24.4445 20.7025 24.4445 22.05V26.95H29.3333C30.6778 26.95 31.7778 28.0525 31.7778 29.4C31.7778 30.7475 30.6778 31.85 29.3333 31.85Z" fill="#333333"/>
</g>
<defs>
<clipPath id="clip0_247_104">
<rect width="44" height="49" fill="white"/>
</clipPath>
</defs>
</svg>
