<svg width="31" height="31" viewBox="0 0 31 31" fill="none" xmlns="http://www.w3.org/2000/svg">
<path d="M28.1654 12.9703H27.125V12.9167H15.5V18.0833H22.7999C21.7349 21.091 18.8732 23.25 15.5 23.25C11.2201 23.25 7.75 19.7799 7.75 15.5C7.75 11.2201 11.2201 7.75 15.5 7.75C17.4756 7.75 19.273 8.49529 20.6415 9.71268L24.295 6.0592C21.988 3.90922 18.9023 2.58333 15.5 2.58333C8.36677 2.58333 2.58333 8.36677 2.58333 15.5C2.58333 22.6332 8.36677 28.4167 15.5 28.4167C22.6332 28.4167 28.4167 22.6332 28.4167 15.5C28.4167 14.6339 28.3275 13.7885 28.1654 12.9703Z" fill="#FFC107"/>
<path d="M4.07262 9.48793L8.3164 12.6002C9.46469 9.75725 12.2456 7.74999 15.5 7.74999C17.4756 7.74999 19.273 8.49529 20.6415 9.71268L24.295 6.0592C21.988 3.90922 18.9023 2.58333 15.5 2.58333C10.5387 2.58333 6.23617 5.38431 4.07262 9.48793Z" fill="#FF3D00"/>
<path d="M15.5 28.4167C18.8364 28.4167 21.8679 27.1399 24.16 25.0635L20.1623 21.6806C18.8654 22.6629 17.2534 23.25 15.5 23.25C12.1404 23.25 9.28773 21.1078 8.21306 18.1182L4.00094 21.3635C6.13865 25.5466 10.4799 28.4167 15.5 28.4167Z" fill="#4CAF50"/>
<path d="M28.1654 12.9703H27.125V12.9167H15.5V18.0833H22.7999C22.2884 19.5281 21.359 20.7739 20.1603 21.6813C20.161 21.6806 20.1616 21.6806 20.1623 21.68L24.16 25.0629C23.8771 25.3199 28.4167 21.9583 28.4167 15.5C28.4167 14.6339 28.3275 13.7885 28.1654 12.9703Z" fill="#1976D2"/>
</svg>
