<svg width="36" height="36" viewBox="0 0 36 36" fill="none" xmlns="http://www.w3.org/2000/svg">
<path d="M31.5 30C31.5 30.8288 30.8288 31.5 30 31.5H6C5.17125 31.5 4.5 30.8288 4.5 30V6C4.5 5.17125 5.17125 4.5 6 4.5H30C30.8288 4.5 31.5 5.17125 31.5 6V30Z" fill="url(#paint0_linear_181_133)"/>
<path opacity="0.05" d="M18.75 28.5V20.25H15.75V15.75H18.75V14.1465C18.75 10.365 20.7495 8.283 24.3788 8.283C25.875 8.283 26.6865 8.388 27.0773 8.439L27.7207 8.52225L27.75 9.16801V12.75H25.0238C24.1778 12.75 24 13.7835 24 14.6513V15.75H27.5422L26.8462 20.25H24V28.5H18.75Z" fill="black"/>
<path opacity="0.07" d="M19.125 28.125V19.875H16.125V16.125H19.125V14.1465C19.125 10.5555 20.9415 8.658 24.3788 8.658C25.857 8.658 26.6512 8.76151 27.0337 8.81101L27.3607 8.85376L27.3757 9.18525V12.375H25.0245C23.8073 12.375 23.6257 13.8008 23.6257 14.6513V16.125H27.1057L26.526 19.875H23.625V28.125H19.125Z" fill="black"/>
<path d="M25.0238 12H27V9.18451C26.631 9.13651 25.8518 9.03226 24.3788 9.03226C21.303 9.03226 19.5 10.5923 19.5 14.1465V16.5H16.5V19.5H19.5V27.75H23.25V19.5H26.2035L26.667 16.5H23.25V14.6513C23.25 13.2458 23.709 12 25.0238 12Z" fill="white"/>
<defs>
<linearGradient id="paint0_linear_181_133" x1="4.671" y1="3.672" x2="31.5578" y2="32.574" gradientUnits="userSpaceOnUse">
<stop stop-color="#0D61A9"/>
<stop offset="1" stop-color="#16528C"/>
</linearGradient>
</defs>
</svg>
