<svg width="169" height="93" viewBox="0 0 169 93" fill="none" xmlns="http://www.w3.org/2000/svg">
<path d="M92.25 10.5L95.4779 23.0427C95.5133 23.1801 95.5312 23.3225 95.5312 23.4656V45H85.0312V10.5H92.25Z" fill="#93573D"/>
<path d="M92.25 42.75C92.076 42.75 91.909 42.671 91.786 42.5303C91.6629 42.3897 91.5938 42.1989 91.5938 42V26.25C91.5938 26.0511 91.6629 25.8603 91.786 25.7197C91.909 25.579 92.076 25.5 92.25 25.5C92.424 25.5 92.591 25.579 92.714 25.7197C92.8371 25.8603 92.9062 26.0511 92.9062 26.25V42C92.9062 42.1989 92.8371 42.3897 92.714 42.5303C92.591 42.671 92.424 42.75 92.25 42.75Z" fill="#794832"/>
<path d="M88.9688 45H66V23.6193C66 23.374 66.0263 23.1297 66.0783 22.8917L69.2812 10.5H92.25L89.0471 22.8917C88.9951 23.1297 88.9688 23.374 88.9688 23.6193V45Z" fill="#AB6647"/>
<path d="M74.4341 39.75H73.3159C73.1356 39.75 72.9573 39.7076 72.792 39.6254C72.6268 39.5432 72.4781 39.423 72.3552 39.2722C72.2324 39.1214 72.1381 38.9434 72.0781 38.7491C72.0181 38.5549 71.9938 38.3486 72.0066 38.1431L72.5625 29.25H75.1875L75.7433 38.1431C75.7562 38.3486 75.7318 38.5549 75.6719 38.7491C75.6119 38.9434 75.5175 39.1214 75.3947 39.2722C75.2719 39.423 75.1232 39.5432 74.9579 39.6254C74.7927 39.7076 74.6143 39.75 74.4341 39.75Z" fill="#E74444"/>
<path d="M81.6122 39.75H80.5754C80.392 39.75 80.2106 39.7061 80.043 39.6211C79.8754 39.5361 79.7252 39.4119 79.6022 39.2565C79.4791 39.1011 79.3859 38.918 79.3286 38.7189C79.2713 38.5199 79.2511 38.3093 79.2693 38.1007L79.7813 32.25H82.4063L82.9182 38.1007C82.9365 38.3093 82.9163 38.5199 82.859 38.7189C82.8016 38.918 82.7085 39.1011 82.5854 39.2565C82.4624 39.4119 82.3122 39.5361 82.1446 39.6211C81.9769 39.7061 81.7956 39.75 81.6122 39.75Z" fill="#E74444"/>
<path d="M68.625 6C67.9001 6 67.3125 7.00734 67.3125 8.25C67.3125 9.49266 67.9001 10.5 68.625 10.5H92.25V6H68.625Z" fill="#93573D"/>
<path d="M96.1875 7.94747C96.1875 8.38116 96.1128 8.81061 95.9676 9.21129C95.8224 9.61197 95.6095 9.97604 95.3412 10.2827C95.0728 10.5894 94.7543 10.8326 94.4037 10.9986C94.0531 11.1646 93.6773 11.25 93.2979 11.25H91.6846C91.6257 11.25 91.5685 11.2724 91.5221 11.3138L87.4266 14.9543C86.9632 15.3661 86.3765 15.553 85.7935 15.4743C85.2105 15.3957 84.6781 15.0579 84.3113 14.534C83.968 14.0435 83.795 13.4255 83.8254 12.7983C83.8558 12.1711 84.0874 11.5788 84.4761 11.1346L88.517 6.51638C88.554 6.47408 88.5793 6.42017 88.5895 6.36149C88.5997 6.3028 88.5945 6.24196 88.5744 6.18668C88.5544 6.13139 88.5205 6.08415 88.4769 6.05092C88.4334 6.01769 88.3822 5.99997 88.3298 6H76.5L83.0719 1.90312C83.4963 1.63858 83.9721 1.49997 84.4556 1.5H101.173C101.243 1.50002 101.31 1.5319 101.36 1.58861C101.41 1.64532 101.437 1.72223 101.438 1.80244V7.19756C101.437 7.27777 101.41 7.35468 101.36 7.41139C101.31 7.4681 101.243 7.49998 101.173 7.5H96.5791C96.5277 7.49999 96.4768 7.51155 96.4293 7.53404C96.3817 7.55652 96.3386 7.58948 96.3022 7.63103C96.2658 7.67258 96.237 7.72191 96.2173 7.77621C96.1976 7.8305 96.1875 7.8887 96.1875 7.94747Z" fill="#F5CBAA"/>
<path d="M98.8125 0H104.062V9.75H98.8125V0Z" fill="#155384"/>
<path d="M88.9688 45L92.25 41.25L95.5312 45H88.9688Z" fill="#794832"/>
<path d="M76.5 23.25C76.326 23.25 76.159 23.329 76.036 23.4697C75.9129 23.6103 75.8438 23.8011 75.8438 24V26.25H74.5312V24C74.5312 23.8011 74.4621 23.6103 74.339 23.4697C74.216 23.329 74.049 23.25 73.875 23.25C73.701 23.25 73.534 23.329 73.411 23.4697C73.2879 23.6103 73.2188 23.8011 73.2188 24V26.25H71.9062V24C71.9062 23.8011 71.8371 23.6103 71.714 23.4697C71.591 23.329 71.424 23.25 71.25 23.25C71.076 23.25 70.909 23.329 70.786 23.4697C70.6629 23.6103 70.5938 23.8011 70.5938 24V26.25L72.5625 29.25H75.1875L77.1562 26.25V24C77.1562 23.8011 77.0871 23.6103 76.964 23.4697C76.841 23.329 76.674 23.25 76.5 23.25Z" fill="#D9DBDD"/>
<path d="M79.7812 32.25V31.5L78.4688 30.75C78.4688 30.75 78.9609 23.25 82.4062 23.25V32.25H79.7812Z" fill="#D9DBDD"/>
<path d="M12.752 66.5527C12.7324 66.4941 12.791 66.3477 12.9277 66.1133C13.0645 65.8594 13.2109 65.5566 13.3672 65.2051C13.543 64.834 13.709 64.4238 13.8652 63.9746C14.041 63.5059 14.1582 63.0273 14.2168 62.5391C14.2949 62.0508 14.2949 61.5625 14.2168 61.0742C14.1387 60.5859 13.9336 60.1172 13.6016 59.668C13.4062 59.4336 13.1133 59.3066 12.7227 59.2871C12.3516 59.248 11.9219 59.3066 11.4336 59.4629C10.9648 59.5996 10.4668 59.8242 9.93945 60.1367C9.43164 60.4297 8.96289 60.7812 8.5332 61.1914C8.10352 61.582 7.73242 62.0215 7.41992 62.5098C7.12695 62.998 6.96094 63.4961 6.92188 64.0039C6.88281 64.4141 6.89258 64.7949 6.95117 65.1465C7.0293 65.498 7.12695 65.8203 7.24414 66.1133C7.36133 66.4062 7.48828 66.6797 7.625 66.9336C7.76172 67.1875 7.88867 67.4121 8.00586 67.6074C8.16211 67.8809 8.40625 68.1836 8.73828 68.5156C9.07031 68.8477 9.43164 69.2285 9.82227 69.6582C10.2129 70.0684 10.6035 70.5371 10.9941 71.0645C11.3848 71.5918 11.7266 72.1875 12.0195 72.8516C12.3125 73.5156 12.5176 74.2578 12.6348 75.0781C12.752 75.8984 12.7422 76.8066 12.6055 77.8027C12.3906 79.248 12.0488 80.4492 11.5801 81.4062C11.1113 82.3828 10.5938 83.1641 10.0273 83.75C9.48047 84.3359 8.92383 84.7559 8.35742 85.0098C7.79102 85.2832 7.32227 85.459 6.95117 85.5371C6.6582 85.5957 6.30664 85.6445 5.89648 85.6836C5.50586 85.7422 5.08594 85.7324 4.63672 85.6543C4.20703 85.5957 3.76758 85.459 3.31836 85.2441C2.86914 85.0488 2.46875 84.7363 2.11719 84.3066C1.70703 83.8184 1.38477 83.291 1.15039 82.7246C0.935547 82.2363 0.779297 81.6699 0.681641 81.0254C0.564453 80.4004 0.613281 79.7461 0.828125 79.0625C0.984375 78.8867 1.15039 78.7305 1.32617 78.5938C1.50195 78.457 1.67773 78.3398 1.85352 78.2422C2.04883 78.125 2.25391 78.0176 2.46875 77.9199C2.72266 77.8418 2.97656 77.7734 3.23047 77.7148C3.44531 77.6758 3.66992 77.6562 3.9043 77.6562C4.1582 77.6367 4.39258 77.666 4.60742 77.7441C4.31445 78.0762 4.10938 78.3887 3.99219 78.6816C3.91406 78.8379 3.85547 78.9746 3.81641 79.0918C3.73828 79.4629 3.70898 79.9023 3.72852 80.4102C3.76758 80.9375 3.875 81.4355 4.05078 81.9043C4.24609 82.3926 4.51953 82.8027 4.87109 83.1348C5.22266 83.4863 5.69141 83.6719 6.27734 83.6914C7.70312 83.7305 8.91406 82.6172 9.91016 80.3516C10.2422 79.6484 10.4082 78.9355 10.4082 78.2129C10.4277 77.4902 10.3398 76.7969 10.1445 76.1328C9.96875 75.4688 9.72461 74.8535 9.41211 74.2871C9.11914 73.7012 8.81641 73.2031 8.50391 72.793C8.19141 72.3828 7.81055 71.9434 7.36133 71.4746C6.93164 70.9863 6.50195 70.459 6.07227 69.8926C5.64258 69.3262 5.25195 68.7109 4.90039 68.0469C4.56836 67.3828 4.34375 66.6602 4.22656 65.8789C4.07031 64.7852 4.16797 63.7891 4.51953 62.8906C4.89062 61.9727 5.37891 61.1719 5.98438 60.4883C6.60938 59.8047 7.2832 59.248 8.00586 58.8184C8.74805 58.3887 9.40234 58.1152 9.96875 57.998C13.1133 57.373 15.1738 57.9004 16.1504 59.5801C16.5605 60.2246 16.7852 60.9082 16.8242 61.6309C16.8633 62.3535 16.8145 63.0273 16.6777 63.6523C16.5605 64.2578 16.4043 64.7754 16.209 65.2051C16.0332 65.6152 15.916 65.8398 15.8574 65.8789C15.7402 65.9961 15.5547 66.123 15.3008 66.2598C15.0469 66.3965 14.6367 66.5234 14.0703 66.6406C13.9141 66.6797 13.7578 66.6992 13.6016 66.6992C13.4648 66.6992 13.3184 66.6895 13.1621 66.6699C13.0059 66.6504 12.8691 66.6113 12.752 66.5527ZM29.8906 78.6523C29.8906 78.2422 29.9297 77.7734 30.0078 77.2461C30.1055 76.7188 30.2227 76.1816 30.3594 75.6348C30.4961 75.0684 30.6328 74.5215 30.7695 73.9941C30.9062 73.4668 31.0234 72.998 31.1211 72.5879C31.2383 72.0801 31.2285 71.6895 31.0918 71.416C30.9551 71.1426 30.7207 71.0059 30.3887 71.0059C30.2324 71.0059 29.9199 71.1426 29.4512 71.416C29.002 71.6895 28.5039 72.168 27.957 72.8516C27.4297 73.5156 26.9023 74.4238 26.375 75.5762C25.8672 76.709 25.4668 78.1543 25.1738 79.9121C24.8027 80.1074 24.4512 80.2344 24.1191 80.293C23.9434 80.332 23.7871 80.3613 23.6504 80.3809C23.2598 80.4004 23.0059 80.332 22.8887 80.1758C22.7715 80.0391 22.791 79.6875 22.9473 79.1211C23.0254 78.8477 23.1621 78.4082 23.3574 77.8027C23.5723 77.1973 23.7773 76.543 23.9727 75.8398C24.168 75.1172 24.334 74.4043 24.4707 73.7012C24.627 72.9785 24.7051 72.3535 24.7051 71.8262C24.7051 71.4551 24.6367 71.2012 24.5 71.0645C24.3828 70.9277 24.207 70.8594 23.9727 70.8594C23.7969 70.8594 23.5039 70.957 23.0938 71.1523C22.6836 71.3477 22.2246 71.7285 21.7168 72.2949C21.209 72.8613 20.7012 73.6523 20.1934 74.668C19.7051 75.6641 19.2852 76.9629 18.9336 78.5645V78.5059C18.8945 78.6621 18.8555 78.8184 18.8164 78.9746C18.7773 79.1113 18.748 79.2578 18.7285 79.4141C18.709 79.5703 18.6797 79.7168 18.6406 79.8535L17.1758 80.498C17.0781 80.5371 16.9512 80.5664 16.7949 80.5859C16.6582 80.6055 16.5215 80.5762 16.3848 80.498C16.2676 80.4395 16.1797 80.3027 16.1211 80.0879C16.0625 79.873 16.082 79.5508 16.1797 79.1211L18.0254 71.4746C18.084 71.2207 18.1328 70.9766 18.1719 70.7422C18.2109 70.5273 18.2305 70.3223 18.2305 70.127C18.25 69.9121 18.2402 69.7363 18.2012 69.5996C18.5332 69.4434 18.8262 69.3262 19.0801 69.248C19.334 69.1699 19.5391 69.1113 19.6953 69.0723C19.8906 69.0137 20.0566 68.9844 20.1934 68.9844C20.8184 68.9844 21.0234 69.5215 20.8086 70.5957C20.7305 70.9082 20.6133 71.3672 20.457 71.9727C20.8281 71.5039 21.2188 71.0645 21.6289 70.6543C22.0586 70.2246 22.4883 69.8438 22.918 69.5117C23.3477 69.1797 23.7773 68.916 24.207 68.7207C24.6562 68.5254 25.0957 68.4277 25.5254 68.4277C25.8574 68.4277 26.1309 68.5254 26.3457 68.7207C26.5801 68.916 26.7559 69.1797 26.873 69.5117C27.0098 69.8242 27.0879 70.2051 27.1074 70.6543C27.127 71.084 27.1074 71.5332 27.0488 72.002C27.3613 71.5918 27.7031 71.1816 28.0742 70.7715C28.4648 70.3418 28.8652 69.9609 29.2754 69.6289C29.7051 69.2969 30.1445 69.0234 30.5938 68.8086C31.043 68.5938 31.4922 68.4863 31.9414 68.4863C32.4688 68.4863 32.8691 68.6426 33.1426 68.9551C33.4355 69.2676 33.6309 69.668 33.7285 70.1562C33.8457 70.6445 33.875 71.1719 33.8164 71.7383C33.7773 72.3047 33.6992 72.8516 33.582 73.3789L32.5859 77.334C32.3711 78.3105 32.5762 78.7988 33.2012 78.7988C33.6895 78.7988 34.2266 78.5645 34.8125 78.0957C35.3984 77.627 35.9648 77.0703 36.5117 76.4258C37.0781 75.7812 37.6055 75.1172 38.0938 74.4336C38.582 73.75 38.9922 73.2031 39.3242 72.793C39.4414 72.6562 39.5586 72.5781 39.6758 72.5586C39.8125 72.5391 39.9199 72.5684 39.998 72.6465C40.0957 72.7051 40.1445 72.8125 40.1445 72.9688C40.1641 73.125 40.1152 73.3203 39.998 73.5547C39.6074 74.2383 39.1289 75 38.5625 75.8398C37.9961 76.6602 37.3711 77.4316 36.6875 78.1543C36.0234 78.877 35.3105 79.4824 34.5488 79.9707C33.7871 80.459 32.9961 80.7031 32.1758 80.7031C31.9023 80.7031 31.6289 80.6738 31.3555 80.6152C31.1016 80.5566 30.8574 80.4492 30.623 80.293C30.4082 80.1367 30.2324 79.9316 30.0957 79.6777C29.959 79.4043 29.8906 79.0625 29.8906 78.6523ZM52.8008 74.1699C52.5273 74.5605 52.1758 75.0488 51.7461 75.6348C51.3164 76.2012 50.8672 76.7773 50.3984 77.3633C49.9492 77.9297 49.5 78.457 49.0508 78.9453C48.6211 79.4141 48.2598 79.7461 47.9668 79.9414C47.7715 80.0586 47.5469 80.1562 47.293 80.2344C47.0391 80.3125 46.7754 80.3613 46.502 80.3809C46.248 80.4004 46.0039 80.3809 45.7695 80.3223C45.5352 80.2832 45.3301 80.2051 45.1543 80.0879C44.9785 79.9512 44.832 79.7559 44.7148 79.502C44.6172 79.2871 44.5195 79.0039 44.4219 78.6523C44.3438 78.3008 44.3145 77.8613 44.334 77.334C43.8652 78.1152 43.3477 78.7207 42.7812 79.1504C42.2148 79.5605 41.6777 79.8633 41.1699 80.0586C40.584 80.2734 39.998 80.4004 39.4121 80.4395C39.1387 80.4395 38.8457 80.3418 38.5332 80.1465C38.2207 79.9707 37.957 79.6875 37.7422 79.2969C37.5273 78.8867 37.3906 78.3691 37.332 77.7441C37.2734 77.0996 37.3516 76.3379 37.5664 75.459C37.8398 74.2676 38.2695 73.1836 38.8555 72.207C39.4609 71.2305 40.1152 70.4004 40.8184 69.7168C41.5215 69.0137 42.2148 68.4863 42.8984 68.1348C43.582 67.7832 44.1484 67.627 44.5977 67.666C45.125 67.7637 45.5547 67.9199 45.8867 68.1348C46.1602 68.3301 46.3359 68.623 46.4141 69.0137C46.5117 69.3848 46.3555 69.8828 45.9453 70.5078C46.2188 70.4492 46.4434 70.4102 46.6191 70.3906C46.8145 70.3711 46.9609 70.3613 47.0586 70.3613C47.1758 70.3613 47.2539 70.3711 47.293 70.3906C47.3125 70.4297 47.3223 70.5176 47.3223 70.6543C47.3223 70.7715 47.293 70.9961 47.2344 71.3281C47.1758 71.6602 47.0879 72.1094 46.9707 72.6758C46.8535 73.2422 46.6973 73.9746 46.502 74.873C46.4629 75.0488 46.4238 75.2148 46.3848 75.3711C46.3652 75.5078 46.3359 75.6543 46.2969 75.8105C46.2773 75.9473 46.248 76.1133 46.209 76.3086C46.1699 76.5039 46.1211 76.748 46.0625 77.041C46.043 77.2168 46.0332 77.4121 46.0332 77.627C46.0527 77.8223 46.0918 78.0078 46.1504 78.1836C46.209 78.3594 46.2969 78.5059 46.4141 78.623C46.5508 78.7207 46.7363 78.7695 46.9707 78.7695C47.166 78.7695 47.4199 78.6523 47.7324 78.418C48.0449 78.1641 48.377 77.8516 48.7285 77.4805C49.0801 77.0898 49.4414 76.6699 49.8125 76.2207C50.2031 75.752 50.5645 75.3027 50.8965 74.873C51.2285 74.4434 51.5215 74.0625 51.7754 73.7305C52.0488 73.3984 52.2441 73.1543 52.3613 72.998C52.5176 72.8223 52.6738 72.7246 52.8301 72.7051C52.9863 72.666 53.1035 72.7051 53.1816 72.8223C53.2598 72.9395 53.2695 73.1152 53.2109 73.3496C53.1719 73.584 53.0352 73.8574 52.8008 74.1699ZM44.2168 75.459C44.3145 75.0684 44.4316 74.6094 44.5684 74.082C44.7051 73.5547 44.8223 73.0469 44.9199 72.5586C45.0176 72.0703 45.0859 71.6699 45.125 71.3574C45.1836 71.0254 45.1738 70.8691 45.0957 70.8887C44.998 70.9082 44.8906 70.9375 44.7734 70.9766C44.6758 71.0156 44.5488 71.0449 44.3926 71.0645C44.2363 71.084 44.0801 71.1133 43.9238 71.1523C44.0801 70.8398 44.168 70.5859 44.1875 70.3906C44.2266 70.1758 44.2363 70.0098 44.2168 69.8926C44.1973 69.7559 44.1582 69.6484 44.0996 69.5703C43.8848 69.3945 43.5039 69.541 42.957 70.0098C42.4297 70.459 41.8145 71.2988 41.1113 72.5293C40.8184 73.0371 40.584 73.584 40.4082 74.1699C40.2324 74.7363 40.1055 75.2734 40.0273 75.7812C39.9688 76.2891 39.959 76.7383 39.998 77.1289C40.0371 77.5 40.1152 77.7441 40.2324 77.8613C40.4473 78.0762 40.6914 78.1836 40.9648 78.1836C41.2383 78.1641 41.5117 78.0859 41.7852 77.9492C42.0781 77.793 42.3613 77.5977 42.6348 77.3633C42.9277 77.1289 43.1816 76.8848 43.3965 76.6309C43.6309 76.377 43.8164 76.1426 43.9531 75.9277C44.1094 75.7129 44.1973 75.5566 44.2168 75.459ZM49.7246 79.8535C49.5879 80.0684 49.4414 80.2051 49.2852 80.2637C49.1094 80.3418 48.9629 80.3516 48.8457 80.293C48.709 80.2539 48.6211 80.1562 48.582 80C48.543 79.8438 48.582 79.6484 48.6992 79.4141C48.7578 79.2969 48.8945 79.0332 49.1094 78.623C49.3047 78.2129 49.5488 77.7246 49.8418 77.1582C50.1152 76.5723 50.418 75.9473 50.75 75.2832C51.082 74.5996 51.3945 73.9551 51.6875 73.3496C52 72.7441 52.2832 72.207 52.5371 71.7383C52.791 71.25 52.9766 70.8984 53.0938 70.6836C52.8789 70.4883 52.7324 70.3516 52.6543 70.2734C52.5762 70.1758 52.5176 69.9805 52.4785 69.6875C52.4395 69.4336 52.498 69.1016 52.6543 68.6914C52.8105 68.2812 53.0156 67.8906 53.2695 67.5195C53.5234 67.1289 53.8066 66.7969 54.1191 66.5234C54.4316 66.25 54.7344 66.1133 55.0273 66.1133C55.5742 66.1133 55.9551 66.2891 56.1699 66.6406C56.4043 66.9922 56.541 67.3535 56.5801 67.7246C56.6191 67.9785 56.5996 68.3008 56.5215 68.6914C56.4434 69.082 56.2969 69.4336 56.082 69.7461C56.1406 69.7852 56.2188 69.834 56.3164 69.8926C56.4141 69.9316 56.5703 69.9512 56.7852 69.9512C57.0977 69.9512 57.3125 69.9316 57.4297 69.8926C57.5664 69.8535 57.7715 69.834 58.0449 69.834C58.377 69.834 58.6504 69.9219 58.8652 70.0977C59.0801 70.2539 59.2559 70.459 59.3926 70.7129C59.5293 70.9473 59.627 71.2109 59.6855 71.5039C59.7637 71.7773 59.8125 72.0312 59.832 72.2656C59.8906 72.7539 59.7637 73.2617 59.4512 73.7891C59.1387 74.3164 58.7578 74.8926 58.3086 75.5176C58.0352 75.9082 57.7617 76.3477 57.4883 76.8359C57.2148 77.3242 57.0977 77.7637 57.1367 78.1543C57.1758 78.4082 57.2441 78.6133 57.3418 78.7695C57.4395 78.9258 57.7129 79.0039 58.1621 79.0039C58.4941 79.0039 58.8555 78.8867 59.2461 78.6523C59.6562 78.3984 60.0664 78.0859 60.4766 77.7148C60.9062 77.3242 61.3262 76.9043 61.7363 76.4551C62.1465 75.9863 62.5273 75.5371 62.8789 75.1074C63.2305 74.6582 63.5234 74.2578 63.7578 73.9062C64.0117 73.5547 64.1973 73.3008 64.3145 73.1445C64.4121 72.9883 64.5391 72.8809 64.6953 72.8223C64.8516 72.7637 64.9883 72.7637 65.1055 72.8223C65.2227 72.8809 65.291 72.998 65.3105 73.1738C65.3496 73.3496 65.2812 73.584 65.1055 73.877C64.9883 74.0723 64.7832 74.3848 64.4902 74.8145C64.2168 75.2441 63.875 75.7227 63.4648 76.25C63.0742 76.7773 62.6348 77.3242 62.1465 77.8906C61.6582 78.4375 61.1406 78.9453 60.5938 79.4141C60.0664 79.8633 59.5293 80.2344 58.9824 80.5273C58.4551 80.8203 57.9473 80.9668 57.459 80.9668C56.9512 80.9668 56.5312 80.8691 56.1992 80.6738C55.8672 80.4785 55.5938 80.2441 55.3789 79.9707C55.1836 79.6777 55.0371 79.3652 54.9395 79.0332C54.8613 78.6816 54.832 78.3594 54.8516 78.0664C54.8711 77.832 54.9297 77.5879 55.0273 77.334C55.1445 77.0605 55.2715 76.7871 55.4082 76.5137C55.5645 76.2207 55.7207 75.9375 55.877 75.6641C56.0527 75.3711 56.209 75.0879 56.3457 74.8145C56.6777 74.248 56.9414 73.7695 57.1367 73.3789C57.3516 72.9688 57.459 72.627 57.459 72.3535C57.459 72.1777 57.4199 72.0215 57.3418 71.8848C57.2637 71.748 57.1367 71.6797 56.9609 71.6797C56.8438 71.6797 56.7559 71.6895 56.6973 71.709C56.6582 71.709 56.6094 71.709 56.5508 71.709C56.5117 71.709 56.4434 71.7188 56.3457 71.7383C56.2676 71.7383 56.1406 71.7383 55.9648 71.7383C55.7109 71.7383 55.4961 71.6992 55.3203 71.6211C55.1445 71.543 54.9785 71.4844 54.8223 71.4453C54.7441 71.582 54.5684 71.875 54.2949 72.3242C54.0215 72.7734 53.6992 73.3008 53.3281 73.9062C52.9766 74.5117 52.5957 75.1465 52.1855 75.8105C51.7949 76.4746 51.4238 77.0996 51.0723 77.6855C50.7207 78.252 50.4277 78.7402 50.1934 79.1504C49.9395 79.541 49.7832 79.7754 49.7246 79.8535ZM73.8359 72.5879C73.9141 72.4707 74.0117 72.4023 74.1289 72.3828C74.2656 72.3438 74.373 72.3535 74.4512 72.4121C74.5293 72.4707 74.5684 72.5684 74.5684 72.7051C74.5879 72.8418 74.5391 73.0273 74.4219 73.2617C74.0312 74.0039 73.5137 74.8047 72.8691 75.6641C72.2441 76.5234 71.5801 77.334 70.877 78.0957C70.1738 78.8379 69.4902 79.4531 68.8262 79.9414C68.1621 80.4297 67.6055 80.6738 67.1562 80.6738C66.5117 80.6738 65.9746 80.5469 65.5449 80.293C65.1152 80.0391 64.7734 79.7266 64.5195 79.3555C64.2852 78.9844 64.1191 78.584 64.0215 78.1543C63.9238 77.7051 63.8945 77.2949 63.9336 76.9238C63.9531 76.6113 64.0215 76.0547 64.1387 75.2539C64.2559 74.4336 64.4121 73.4961 64.6074 72.4414C64.8027 71.3672 65.0176 70.2246 65.252 69.0137C65.5059 67.7832 65.7695 66.6016 66.043 65.4688C65.7109 65.5078 65.3789 65.5469 65.0469 65.5859C64.7148 65.625 64.4121 65.6445 64.1387 65.6445C63.5137 65.6445 62.9277 65.5762 62.3809 65.4395C61.8145 65.2832 61.3945 65.1367 61.1211 65C60.9648 64.9219 60.8965 64.8145 60.916 64.6777C60.9355 64.5215 60.9941 64.375 61.0918 64.2383C61.1895 64.082 61.3164 63.9551 61.4727 63.8574C61.6094 63.7402 61.7363 63.6816 61.8535 63.6816C62.2246 63.7207 62.625 63.7598 63.0547 63.7988C63.4844 63.8184 63.9531 63.8184 64.4609 63.7988C64.832 63.7793 65.1836 63.75 65.5156 63.7109C65.8672 63.6719 66.209 63.623 66.541 63.5645C66.7949 62.627 67.0391 61.8164 67.2734 61.1328C67.5273 60.4297 67.752 59.9414 67.9473 59.668C68.0059 59.5703 68.1328 59.4922 68.3281 59.4336C68.543 59.3555 68.7676 59.3066 69.002 59.2871C69.2363 59.248 69.4609 59.248 69.6758 59.2871C69.8906 59.3066 70.0469 59.375 70.1445 59.4922C70.2422 59.6484 70.2812 60.0488 70.2617 60.6934C70.2422 61.3379 70.1348 62.1582 69.9395 63.1543C70.7598 63.1543 71.4824 63.2031 72.1074 63.3008C72.752 63.3789 73.2988 63.4766 73.748 63.5938C74.1973 63.6914 74.5586 63.7988 74.832 63.916C75.1055 64.0137 75.3105 64.082 75.4473 64.1211C75.584 64.1602 75.6523 64.2578 75.6523 64.4141C75.6719 64.5703 75.6426 64.7363 75.5645 64.9121C75.5059 65.0684 75.3984 65.2051 75.2422 65.3223C75.0859 65.4395 74.9102 65.4785 74.7148 65.4395C74.5195 65.4199 74.2949 65.3809 74.041 65.3223C73.8066 65.2637 73.5137 65.2148 73.1621 65.1758C72.8301 65.1367 72.4297 65.0977 71.9609 65.0586C71.4922 65.0195 70.9453 65 70.3203 65C70.2031 65 70.0664 65.0098 69.9102 65.0293C69.7734 65.0293 69.627 65.0293 69.4707 65.0293C69.3926 65.3418 69.3145 65.6543 69.2363 65.9668C69.1777 66.2598 69.0898 66.5723 68.9727 66.9043C68.7188 67.6855 68.4258 68.5352 68.0938 69.4531C67.8008 70.2539 67.4492 71.1719 67.0391 72.207C66.6289 73.2422 66.1699 74.3457 65.6621 75.5176C65.5449 76.3574 65.5547 77.002 65.6914 77.4512C65.8477 77.8809 66.0332 78.1934 66.248 78.3887C66.502 78.6035 66.8145 78.7207 67.1855 78.7402C67.4785 78.7793 67.8301 78.6816 68.2402 78.4473C68.6699 78.1934 69.1094 77.8613 69.5586 77.4512C70.0078 77.041 70.457 76.5918 70.9062 76.1035C71.375 75.6152 71.8047 75.1367 72.1953 74.668C72.5859 74.1992 72.9277 73.7793 73.2207 73.4082C73.5137 73.0176 73.7188 72.7441 73.8359 72.5879ZM72.1953 83.7793C72.0195 83.6621 71.9316 83.5352 71.9316 83.3984C71.9121 83.2617 71.9414 83.125 72.0195 82.9883C72.0977 82.832 72.2148 82.6758 72.3711 82.5195C72.5273 82.3828 72.7129 82.0312 72.9277 81.4648C73.1426 80.918 73.3672 80.2539 73.6016 79.4727C73.8555 78.6719 74.0996 77.8027 74.334 76.8652C74.5879 75.9277 74.8223 75.0098 75.0371 74.1113C75.252 73.2129 75.4375 72.3828 75.5938 71.6211C75.75 70.8594 75.8672 70.2539 75.9453 69.8047C76.043 69.2578 76.1504 68.6621 76.2676 68.0176C76.3652 67.4512 76.4727 66.7969 76.5898 66.0547C76.707 65.293 76.8145 64.4531 76.9121 63.5352L79.2559 62.4805C79.5879 62.3242 79.8223 62.3633 79.959 62.5977C80.0957 62.8125 80.0957 63.2715 79.959 63.9746C79.9004 64.3262 79.793 64.9023 79.6367 65.7031C79.4805 66.4844 79.2949 67.3535 79.0801 68.3105C78.8848 69.248 78.6699 70.2148 78.4355 71.2109C78.2207 72.1875 78.0059 73.0566 77.791 73.8184C77.5957 74.541 77.3711 75.3711 77.1172 76.3086C76.668 77.9102 76.043 80.0977 75.2422 82.8711C75.5156 83.3398 76.0234 83.5742 76.7656 83.5742C77.5859 83.5742 78.5332 83.2617 79.6074 82.6367C80.7012 82.0117 81.7559 81.0742 82.7715 79.8242C83.7871 78.5742 84.6758 77.0117 85.4375 75.1367C86.2188 73.2422 86.707 71.0352 86.9023 68.5156C87 67.1484 86.9316 65.9473 86.6973 64.9121C86.4629 63.877 86.1016 63.0078 85.6133 62.3047C85.1445 61.6016 84.5586 61.0742 83.8555 60.7227C83.1719 60.3711 82.4102 60.1953 81.5703 60.1953C79.5977 60.1953 77.5566 61.0156 75.4473 62.6562L75.3008 60.2246C75.8086 59.6582 76.3848 59.2285 77.0293 58.9355C77.6934 58.623 78.3086 58.3887 78.875 58.2324C79.5391 58.0566 80.2129 57.959 80.8965 57.9395C82.1465 57.9395 83.3477 58.1836 84.5 58.6719C85.6719 59.1406 86.6777 59.8633 87.5176 60.8398C88.377 61.8164 89.0312 63.0469 89.4805 64.5312C89.9297 65.9961 90.0859 67.7148 89.9492 69.6875C89.8711 70.8203 89.6367 72.002 89.2461 73.2324C88.875 74.4434 88.377 75.6348 87.752 76.8066C87.1465 77.9785 86.4238 79.0918 85.584 80.1465C84.7441 81.2012 83.8262 82.1191 82.8301 82.9004C81.834 83.7012 80.7695 84.3262 79.6367 84.7754C78.5039 85.2441 77.332 85.4785 76.1211 85.4785C75.75 85.459 75.3496 85.3906 74.9199 85.2734C74.5488 85.1758 74.1289 85.0098 73.6602 84.7754C73.1914 84.541 72.7031 84.209 72.1953 83.7793ZM104.334 73.9062C103.748 74.7656 103.084 75.6055 102.342 76.4258C101.6 77.2266 100.809 77.9492 99.9688 78.5938C99.1484 79.2188 98.2988 79.7266 97.4199 80.1172C96.5605 80.5078 95.7207 80.7031 94.9004 80.7031C94.4707 80.7031 94.002 80.5957 93.4941 80.3809C93.0059 80.1855 92.5566 79.873 92.1465 79.4434C91.7363 79.0137 91.4043 78.457 91.1504 77.7734C90.916 77.0898 90.8477 76.2598 90.9453 75.2832C91.0234 74.4824 91.2676 73.6426 91.6777 72.7637C92.1074 71.8652 92.625 71.0449 93.2305 70.3027C93.8555 69.5605 94.5488 68.9453 95.3105 68.457C96.0918 67.9688 96.873 67.7246 97.6543 67.7246C98.3965 67.7246 98.9336 67.9102 99.2656 68.2812C99.5977 68.6523 99.7441 69.1113 99.7051 69.6582C99.6465 70.2637 99.4707 70.8203 99.1777 71.3281C98.9043 71.8359 98.5723 72.2949 98.1816 72.7051C97.791 73.1152 97.3711 73.4863 96.9219 73.8184C96.4922 74.1504 96.082 74.4531 95.6914 74.7266C95.2617 75.0195 94.8516 75.3027 94.4609 75.5762C94.0703 75.8301 93.7285 76.0645 93.4355 76.2793C93.4551 76.7676 93.543 77.1777 93.6992 77.5098C93.8555 77.8418 94.0508 78.1152 94.2852 78.3301C94.5195 78.5254 94.7832 78.6719 95.0762 78.7695C95.3887 78.8477 95.7012 78.8867 96.0137 78.8867C96.6777 78.8867 97.3711 78.6816 98.0938 78.2715C98.8164 77.8418 99.5195 77.334 100.203 76.748C100.906 76.1426 101.551 75.5176 102.137 74.873C102.742 74.2285 103.24 73.6719 103.631 73.2031C103.768 73.0469 103.904 72.959 104.041 72.9395C104.197 72.9004 104.314 72.9199 104.393 72.998C104.49 73.0566 104.539 73.1738 104.539 73.3496C104.539 73.5059 104.471 73.6914 104.334 73.9062ZM96.834 69.3945C96.5996 69.3945 96.3164 69.5117 95.9844 69.7461C95.6719 69.9805 95.3594 70.3223 95.0469 70.7715C94.7344 71.2012 94.4414 71.7383 94.168 72.3828C93.8945 73.0078 93.6895 73.7305 93.5527 74.5508C93.7871 74.375 94.041 74.1992 94.3145 74.0234C94.5879 73.8281 94.8613 73.623 95.1348 73.4082C95.9746 72.7637 96.5605 72.1973 96.8926 71.709C97.2246 71.2207 97.4102 70.8008 97.4492 70.4492C97.4883 70.0781 97.4492 69.8145 97.332 69.6582C97.2148 69.4824 97.0488 69.3945 96.834 69.3945ZM101.785 79.5312C102.645 75.918 103.328 73.0176 103.836 70.8301C104.363 68.6426 104.764 66.9727 105.037 65.8203C105.35 64.4531 105.564 63.5059 105.682 62.9785C105.74 62.6074 105.789 62.2461 105.828 61.8945C105.867 61.582 105.887 61.2598 105.887 60.9277C105.887 60.5957 105.857 60.293 105.799 60.0195C105.955 59.9219 106.121 59.8438 106.297 59.7852C106.492 59.7266 106.678 59.6777 106.854 59.6387C107.068 59.5801 107.283 59.5312 107.498 59.4922C107.713 59.4531 107.908 59.4336 108.084 59.4336C108.24 59.4336 108.387 59.4531 108.523 59.4922C108.66 59.5117 108.748 59.5703 108.787 59.668C108.904 59.7656 108.953 59.9609 108.934 60.2539C108.934 60.5469 108.914 60.8496 108.875 61.1621C108.797 61.5332 108.709 61.9336 108.611 62.3633C108.377 63.2031 108.055 64.4141 107.645 65.9961C107.293 67.3438 106.814 69.1797 106.209 71.5039C105.623 73.8281 104.881 76.7578 103.982 80.293C103.885 80.3906 103.768 80.459 103.631 80.498C103.494 80.5371 103.367 80.5566 103.25 80.5566C103.113 80.5566 102.967 80.5469 102.811 80.5273C102.674 80.4883 102.537 80.4297 102.4 80.3516C102.283 80.2734 102.166 80.166 102.049 80.0293C101.932 79.9121 101.844 79.7461 101.785 79.5312ZM115.232 62.7441C115.174 62.959 115.057 63.1738 114.881 63.3887C114.725 63.584 114.539 63.75 114.324 63.8867C114.129 64.0039 113.924 64.082 113.709 64.1211C113.494 64.1602 113.318 64.1211 113.182 64.0039C112.771 63.6914 112.557 63.3594 112.537 63.0078C112.518 62.6367 112.605 62.2949 112.801 61.9824C112.996 61.6504 113.24 61.377 113.533 61.1621C113.826 60.9277 114.08 60.791 114.295 60.752C114.51 60.7129 114.686 60.7617 114.822 60.8984C114.979 61.0156 115.096 61.1816 115.174 61.3965C115.252 61.5918 115.291 61.8164 115.291 62.0703C115.311 62.3242 115.291 62.5488 115.232 62.7441ZM111.189 68.9844C111.287 68.8672 111.473 68.7695 111.746 68.6914C112.02 68.6133 112.303 68.5547 112.596 68.5156C112.889 68.457 113.152 68.4277 113.387 68.4277C113.641 68.4082 113.787 68.4082 113.826 68.4277C113.846 68.4473 113.797 68.6523 113.68 69.043C113.562 69.4336 113.416 69.8926 113.24 70.4199C113.064 70.9473 112.879 71.4941 112.684 72.0605C112.488 72.6074 112.342 73.0566 112.244 73.4082C112.146 73.7598 112.029 74.1602 111.893 74.6094C111.756 75.0391 111.629 75.4688 111.512 75.8984C111.414 76.3086 111.346 76.6992 111.307 77.0703C111.268 77.4414 111.297 77.7246 111.395 77.9199C111.492 78.1543 111.6 78.3203 111.717 78.418C111.834 78.4961 111.961 78.5352 112.098 78.5352C112.488 78.5352 112.977 78.3203 113.562 77.8906C114.168 77.4609 114.773 76.9531 115.379 76.3672C116.004 75.7617 116.58 75.1562 117.107 74.5508C117.635 73.9258 118.025 73.4277 118.279 73.0566C118.436 72.8613 118.592 72.7344 118.748 72.6758C118.924 72.6172 119.061 72.627 119.158 72.7051C119.275 72.7832 119.334 72.9102 119.334 73.0859C119.354 73.2617 119.295 73.4668 119.158 73.7012C118.846 74.248 118.387 74.9023 117.781 75.6641C117.176 76.4062 116.531 77.1289 115.848 77.832C115.164 78.5156 114.49 79.1016 113.826 79.5898C113.182 80.0781 112.654 80.332 112.244 80.3516C111.912 80.3711 111.58 80.3125 111.248 80.1758C110.936 80.0586 110.643 79.8926 110.369 79.6777C110.115 79.4434 109.9 79.1797 109.725 78.8867C109.549 78.5742 109.451 78.252 109.432 77.9199C109.373 77.4316 109.373 76.7676 109.432 75.9277C109.49 75.0684 109.598 74.1992 109.754 73.3203C109.91 72.4219 110.105 71.5723 110.34 70.7715C110.594 69.9707 110.877 69.375 111.189 68.9844ZM125.604 74.7852C125.096 75.5273 124.568 76.25 124.021 76.9531C123.494 77.6562 122.977 78.291 122.469 78.8574C121.98 79.4043 121.521 79.8438 121.092 80.1758C120.682 80.5273 120.35 80.7031 120.096 80.7031C119.49 80.7031 118.992 80.4199 118.602 79.8535C118.23 79.2676 117.938 78.5547 117.723 77.7148C117.527 76.8555 117.4 75.9473 117.342 74.9902C117.303 74.0137 117.312 73.1445 117.371 72.3828C117.449 71.6211 117.537 71.0156 117.635 70.5664C117.732 70.0977 117.85 69.7363 117.986 69.4824C118.143 69.2285 118.318 69.043 118.514 68.9258C118.729 68.8086 118.992 68.7109 119.305 68.6328C119.441 68.5938 119.598 68.5645 119.773 68.5449C119.949 68.5254 120.105 68.5352 120.242 68.5742C120.398 68.5938 120.516 68.6523 120.594 68.75C120.672 68.8477 120.682 68.9941 120.623 69.1895C120.584 69.3652 120.516 69.6289 120.418 69.9805C120.34 70.3125 120.252 70.6934 120.154 71.123C120.057 71.5527 119.959 72.002 119.861 72.4707C119.783 72.9395 119.725 73.3887 119.686 73.8184C119.627 74.5605 119.627 75.2148 119.686 75.7812C119.744 76.3281 119.832 76.7969 119.949 77.1875C120.066 77.5586 120.193 77.8418 120.33 78.0371C120.467 78.2324 120.574 78.3301 120.652 78.3301C120.75 78.3301 120.926 78.2031 121.18 77.9492C121.453 77.6758 121.756 77.3242 122.088 76.8945C122.439 76.4648 122.801 75.9668 123.172 75.4004C123.562 74.834 123.924 74.248 124.256 73.6426C124.139 73.3301 124.09 72.959 124.109 72.5293C124.168 71.8652 124.314 71.2695 124.549 70.7422C124.783 70.1953 125.047 69.7363 125.34 69.3652C125.652 68.9941 125.965 68.7109 126.277 68.5156C126.609 68.3008 126.902 68.1934 127.156 68.1934C127.664 68.1934 127.977 68.3301 128.094 68.6035C128.23 68.8574 128.279 69.1211 128.24 69.3945C128.201 69.8047 128.016 70.3711 127.684 71.0938C127.371 71.7969 126.961 72.5684 126.453 73.4082C126.551 73.4473 126.658 73.4863 126.775 73.5254C126.893 73.5645 127.029 73.584 127.186 73.584C127.85 73.584 128.445 73.5059 128.973 73.3496C129.52 73.1934 129.988 73.0078 130.379 72.793C130.789 72.5781 131.131 72.3535 131.404 72.1191C131.697 71.8652 131.932 71.6602 132.107 71.5039C132.225 71.3867 132.342 71.3281 132.459 71.3281C132.576 71.3281 132.674 71.3574 132.752 71.416C132.83 71.4746 132.869 71.5625 132.869 71.6797C132.869 71.7969 132.811 71.9238 132.693 72.0605C131.99 72.9199 131.131 73.6133 130.115 74.1406C129.119 74.668 127.947 74.9316 126.6 74.9316C126.482 74.9316 126.336 74.9219 126.16 74.9023C125.984 74.8828 125.799 74.8438 125.604 74.7852ZM143.123 73.9062C142.537 74.7656 141.873 75.6055 141.131 76.4258C140.389 77.2266 139.598 77.9492 138.758 78.5938C137.938 79.2188 137.088 79.7266 136.209 80.1172C135.35 80.5078 134.51 80.7031 133.689 80.7031C133.26 80.7031 132.791 80.5957 132.283 80.3809C131.795 80.1855 131.346 79.873 130.936 79.4434C130.525 79.0137 130.193 78.457 129.939 77.7734C129.705 77.0898 129.637 76.2598 129.734 75.2832C129.812 74.4824 130.057 73.6426 130.467 72.7637C130.896 71.8652 131.414 71.0449 132.02 70.3027C132.645 69.5605 133.338 68.9453 134.1 68.457C134.881 67.9688 135.662 67.7246 136.443 67.7246C137.186 67.7246 137.723 67.9102 138.055 68.2812C138.387 68.6523 138.533 69.1113 138.494 69.6582C138.436 70.2637 138.26 70.8203 137.967 71.3281C137.693 71.8359 137.361 72.2949 136.971 72.7051C136.58 73.1152 136.16 73.4863 135.711 73.8184C135.281 74.1504 134.871 74.4531 134.48 74.7266C134.051 75.0195 133.641 75.3027 133.25 75.5762C132.859 75.8301 132.518 76.0645 132.225 76.2793C132.244 76.7676 132.332 77.1777 132.488 77.5098C132.645 77.8418 132.84 78.1152 133.074 78.3301C133.309 78.5254 133.572 78.6719 133.865 78.7695C134.178 78.8477 134.49 78.8867 134.803 78.8867C135.467 78.8867 136.16 78.6816 136.883 78.2715C137.605 77.8418 138.309 77.334 138.992 76.748C139.695 76.1426 140.34 75.5176 140.926 74.873C141.531 74.2285 142.029 73.6719 142.42 73.2031C142.557 73.0469 142.693 72.959 142.83 72.9395C142.986 72.9004 143.104 72.9199 143.182 72.998C143.279 73.0566 143.328 73.1738 143.328 73.3496C143.328 73.5059 143.26 73.6914 143.123 73.9062ZM135.623 69.3945C135.389 69.3945 135.105 69.5117 134.773 69.7461C134.461 69.9805 134.148 70.3223 133.836 70.7715C133.523 71.2012 133.23 71.7383 132.957 72.3828C132.684 73.0078 132.479 73.7305 132.342 74.5508C132.576 74.375 132.83 74.1992 133.104 74.0234C133.377 73.8281 133.65 73.623 133.924 73.4082C134.764 72.7637 135.35 72.1973 135.682 71.709C136.014 71.2207 136.199 70.8008 136.238 70.4492C136.277 70.0781 136.238 69.8145 136.121 69.6582C136.004 69.4824 135.838 69.3945 135.623 69.3945ZM139.9 79.8535C139.764 80.0684 139.617 80.2051 139.461 80.2637C139.285 80.3418 139.139 80.3516 139.021 80.293C138.885 80.2539 138.797 80.1562 138.758 80C138.719 79.8438 138.758 79.6484 138.875 79.4141C138.934 79.2969 139.07 79.0332 139.285 78.623C139.48 78.2129 139.725 77.7246 140.018 77.1582C140.291 76.5723 140.594 75.9473 140.926 75.2832C141.258 74.5996 141.57 73.9551 141.863 73.3496C142.176 72.7441 142.459 72.207 142.713 71.7383C142.967 71.25 143.152 70.8984 143.27 70.6836C143.055 70.4883 142.908 70.3516 142.83 70.2734C142.752 70.1758 142.693 69.9805 142.654 69.6875C142.615 69.4336 142.674 69.1016 142.83 68.6914C142.986 68.2812 143.191 67.8906 143.445 67.5195C143.699 67.1289 143.982 66.7969 144.295 66.5234C144.607 66.25 144.91 66.1133 145.203 66.1133C145.75 66.1133 146.131 66.2891 146.346 66.6406C146.58 66.9922 146.717 67.3535 146.756 67.7246C146.795 67.9785 146.775 68.3008 146.697 68.6914C146.619 69.082 146.473 69.4336 146.258 69.7461C146.316 69.7852 146.395 69.834 146.492 69.8926C146.59 69.9316 146.746 69.9512 146.961 69.9512C147.273 69.9512 147.488 69.9316 147.605 69.8926C147.742 69.8535 147.947 69.834 148.221 69.834C148.553 69.834 148.826 69.9219 149.041 70.0977C149.256 70.2539 149.432 70.459 149.568 70.7129C149.705 70.9473 149.803 71.2109 149.861 71.5039C149.939 71.7773 149.988 72.0312 150.008 72.2656C150.066 72.7539 149.939 73.2617 149.627 73.7891C149.314 74.3164 148.934 74.8926 148.484 75.5176C148.211 75.9082 147.938 76.3477 147.664 76.8359C147.391 77.3242 147.273 77.7637 147.312 78.1543C147.352 78.4082 147.42 78.6133 147.518 78.7695C147.615 78.9258 147.889 79.0039 148.338 79.0039C148.67 79.0039 149.031 78.8867 149.422 78.6523C149.832 78.3984 150.242 78.0859 150.652 77.7148C151.082 77.3242 151.502 76.9043 151.912 76.4551C152.322 75.9863 152.703 75.5371 153.055 75.1074C153.406 74.6582 153.699 74.2578 153.934 73.9062C154.188 73.5547 154.373 73.3008 154.49 73.1445C154.588 72.9883 154.715 72.8809 154.871 72.8223C155.027 72.7637 155.164 72.7637 155.281 72.8223C155.398 72.8809 155.467 72.998 155.486 73.1738C155.525 73.3496 155.457 73.584 155.281 73.877C155.164 74.0723 154.959 74.3848 154.666 74.8145C154.393 75.2441 154.051 75.7227 153.641 76.25C153.25 76.7773 152.811 77.3242 152.322 77.8906C151.834 78.4375 151.316 78.9453 150.77 79.4141C150.242 79.8633 149.705 80.2344 149.158 80.5273C148.631 80.8203 148.123 80.9668 147.635 80.9668C147.127 80.9668 146.707 80.8691 146.375 80.6738C146.043 80.4785 145.77 80.2441 145.555 79.9707C145.359 79.6777 145.213 79.3652 145.115 79.0332C145.037 78.6816 145.008 78.3594 145.027 78.0664C145.047 77.832 145.105 77.5879 145.203 77.334C145.32 77.0605 145.447 76.7871 145.584 76.5137C145.74 76.2207 145.896 75.9375 146.053 75.6641C146.229 75.3711 146.385 75.0879 146.521 74.8145C146.854 74.248 147.117 73.7695 147.312 73.3789C147.527 72.9688 147.635 72.627 147.635 72.3535C147.635 72.1777 147.596 72.0215 147.518 71.8848C147.439 71.748 147.312 71.6797 147.137 71.6797C147.02 71.6797 146.932 71.6895 146.873 71.709C146.834 71.709 146.785 71.709 146.727 71.709C146.688 71.709 146.619 71.7188 146.521 71.7383C146.443 71.7383 146.316 71.7383 146.141 71.7383C145.887 71.7383 145.672 71.6992 145.496 71.6211C145.32 71.543 145.154 71.4844 144.998 71.4453C144.92 71.582 144.744 71.875 144.471 72.3242C144.197 72.7734 143.875 73.3008 143.504 73.9062C143.152 74.5117 142.771 75.1465 142.361 75.8105C141.971 76.4746 141.6 77.0996 141.248 77.6855C140.896 78.252 140.604 78.7402 140.369 79.1504C140.115 79.541 139.959 79.7754 139.9 79.8535ZM160.906 69.2188C161.16 69.0234 161.404 68.877 161.639 68.7793C161.893 68.6621 162.117 68.584 162.312 68.5449C162.527 68.4863 162.742 68.4668 162.957 68.4863C163.484 68.5254 163.807 68.6914 163.924 68.9844C164.061 69.2773 164.08 69.7461 163.982 70.3906C163.924 70.7227 163.807 71.1426 163.631 71.6504C163.455 72.1582 163.25 72.7832 163.016 73.5254C162.781 74.248 162.527 75.0781 162.254 76.0156C162 76.9531 161.756 78.0078 161.521 79.1797C161.287 80.1367 161.033 81.2402 160.76 82.4902C160.525 83.584 160.242 84.9023 159.91 86.4453C159.598 87.9883 159.256 89.7559 158.885 91.748C158.787 92.2363 158.572 92.5195 158.24 92.5977C157.928 92.6758 157.596 92.6367 157.244 92.4805C157.107 92.4023 156.98 92.3145 156.863 92.2168C156.766 92.1191 156.658 92.002 156.541 91.8652C156.424 91.748 156.326 91.582 156.248 91.3672C156.697 89.7266 157.088 88.2324 157.42 86.8848C157.771 85.5371 158.084 84.3652 158.357 83.3691C158.65 82.2168 158.924 81.1816 159.178 80.2637C159.275 79.8535 159.363 79.4531 159.441 79.0625C159.539 78.6523 159.637 78.252 159.734 77.8613C159.48 78.2715 159.207 78.6621 158.914 79.0332C158.621 79.4043 158.299 79.7266 157.947 80C157.596 80.2734 157.215 80.4785 156.805 80.6152C156.414 80.7715 156.004 80.8203 155.574 80.7617C154.52 80.625 153.768 80.2344 153.318 79.5898C152.889 78.9453 152.703 78.1055 152.762 77.0703C152.781 76.6602 152.84 76.2109 152.938 75.7227C153.035 75.2344 153.143 74.7656 153.26 74.3164C153.377 73.8672 153.484 73.4668 153.582 73.1152C153.699 72.7441 153.787 72.4805 153.846 72.3242C154.08 71.582 154.246 70.9473 154.344 70.4199C154.461 69.8926 154.383 69.4531 154.109 69.1016C154.383 68.9258 154.637 68.8086 154.871 68.75C155.125 68.6719 155.35 68.6133 155.545 68.5742C155.76 68.5547 155.975 68.5547 156.189 68.5742C156.717 68.6523 157.02 68.8477 157.098 69.1602C157.195 69.4727 157.166 69.9414 157.01 70.5664C156.932 70.8984 156.805 71.3281 156.629 71.8555C156.453 72.3633 156.268 72.8906 156.072 73.4375C155.877 73.9844 155.701 74.4922 155.545 74.9609C155.389 75.4102 155.301 75.7324 155.281 75.9277C155.105 76.8066 155.096 77.4902 155.252 77.9785C155.408 78.4473 155.75 78.6816 156.277 78.6816C156.531 78.6816 156.814 78.5742 157.127 78.3594C157.439 78.125 157.752 77.8223 158.064 77.4512C158.396 77.0801 158.719 76.6602 159.031 76.1914C159.344 75.7031 159.627 75.2148 159.881 74.7266C160.154 74.2383 160.389 73.7598 160.584 73.291C160.799 72.8223 160.955 72.4023 161.053 72.0312C161.189 71.3086 161.277 70.7422 161.316 70.332C161.355 69.9219 161.219 69.5508 160.906 69.2188Z" fill="#D72638"/>
</svg>
