<svg width="49" height="48" viewBox="0 0 49 48" fill="none" xmlns="http://www.w3.org/2000/svg">
<path d="M48.8443 10.9345L44.5117 1.80523C43.9959 0.670513 42.8612 0 41.6233 0H17.6396C16.4017 0 15.3186 0.722091 14.8028 1.80523L10.4703 10.8829C9.95449 12.0692 10.7797 13.3587 12.0692 13.3587H14.1839V20.3733H30.5341C32.0814 20.3733 33.5256 21.0954 34.5056 22.2817C35.4856 23.5195 35.795 25.0669 35.434 26.6142L33.474 34.712H42.5517C43.9959 34.712 45.1306 33.5257 45.1306 32.1331V13.4103H47.2453C48.5348 13.4103 49.36 12.0692 48.8443 10.9345Z" fill="#333333"/>
<path d="M30.5341 23.829H8.56194L7.78827 20.6828C7.58196 19.9607 6.96302 19.4449 6.18935 19.4449H1.65049C0.722091 19.4449 0 20.167 0 21.0954C0 22.0238 0.722091 22.7459 1.65049 22.7459H4.8999L8.97456 38.9929C9.18087 39.715 9.79981 40.2308 10.5735 40.2308H27.3879C28.1616 40.2308 28.7805 39.715 28.9868 38.9929L32.1331 25.9437C32.2362 25.4795 32.1331 24.9122 31.8236 24.5511C31.5141 24.0353 31.0499 23.829 30.5341 23.829Z" fill="#333333"/>
<path d="M12.8428 47.7612C14.438 47.7612 15.7312 46.468 15.7312 44.8728C15.7312 43.2776 14.438 41.9845 12.8428 41.9845C11.2476 41.9845 9.95447 43.2776 9.95447 44.8728C9.95447 46.468 11.2476 47.7612 12.8428 47.7612Z" fill="#333333"/>
<path d="M24.2931 47.7612C25.8883 47.7612 27.1815 46.468 27.1815 44.8728C27.1815 43.2776 25.8883 41.9845 24.2931 41.9845C22.6979 41.9845 21.4048 43.2776 21.4048 44.8728C21.4048 46.468 22.6979 47.7612 24.2931 47.7612Z" fill="#333333"/>
</svg>
