<svg width="56" height="34" viewBox="0 0 56 34" fill="none" xmlns="http://www.w3.org/2000/svg">
<path d="M55.9333 31.72H0V34H55.9333V31.72Z" fill="#333333"/>
<path fill-rule="evenodd" clip-rule="evenodd" d="M4.82668 30.4933C4.86668 30.1333 4.93334 29.5733 5.04001 28.9867C5.06668 28.8667 5.08001 28.7467 5.10668 28.6133C5.13334 28.48 5.16001 28.3467 5.20001 28.2133C5.26668 27.9333 5.33334 27.6267 5.40001 27.3067C5.44001 27.1467 5.48001 26.9733 5.52001 26.8133C5.57334 26.64 5.61334 26.4667 5.66668 26.2933C5.77334 25.9333 5.88001 25.56 5.98668 25.1733C6.25334 24.4 6.52001 23.56 6.88001 22.7067C6.97335 22.4933 7.05335 22.2667 7.14668 22.0533C7.25335 21.84 7.34668 21.6133 7.45334 21.4C7.56001 21.1733 7.66668 20.96 7.76001 20.7333C7.86668 20.5067 7.98668 20.2933 8.10668 20.0667C8.22668 19.84 8.34668 19.6133 8.46668 19.3867C8.58668 19.16 8.73334 18.9467 8.85334 18.72C8.98668 18.4933 9.12001 18.28 9.25334 18.0533C9.40001 17.8267 9.54668 17.6133 9.69334 17.4C9.84001 17.1867 9.98668 16.96 10.1333 16.7467C10.2933 16.5333 10.4533 16.32 10.6133 16.1067C10.92 15.68 11.2667 15.2667 11.6 14.8667C11.76 14.6533 11.9467 14.4667 12.12 14.2667C12.2933 14.0667 12.48 13.88 12.6533 13.68C12.84 13.4933 13.0267 13.3067 13.2 13.12C13.3867 12.9333 13.56 12.7467 13.76 12.5733C13.9467 12.4 14.1333 12.2267 14.32 12.04C14.5067 11.8667 14.7067 11.7067 14.8933 11.5333C15.2667 11.2 15.6667 10.8933 16.04 10.5867C16.2267 10.4267 16.4267 10.2933 16.6133 10.1467C16.8133 10 17 9.85334 17.1867 9.73333C17.5733 9.46667 17.9467 9.2 18.32 8.97334C19.0667 8.49333 19.8 8.08 20.48 7.70667C21.16 7.34667 21.8 7.04 22.3733 6.78667C22.9467 6.53333 23.4533 6.33333 23.8667 6.17333C24.7067 5.85333 25.2 5.73334 25.2 5.73334C25.2 5.73334 24.72 5.90667 23.92 6.30667C23.12 6.69333 22 7.30667 20.7333 8.16C20.1067 8.58667 19.4267 9.06667 18.7467 9.6C18.4 9.86667 18.0667 10.16 17.7067 10.4533C17.5333 10.6 17.36 10.76 17.1867 10.92C17.0133 11.08 16.84 11.2267 16.6667 11.4C16.3333 11.7333 15.9733 12.0667 15.64 12.4267C15.48 12.6 15.2933 12.7733 15.1333 12.96C14.9733 13.1467 14.8133 13.3333 14.64 13.52C14.4667 13.7067 14.32 13.8933 14.16 14.0933C14 14.2933 13.84 14.48 13.6933 14.68C13.5467 14.88 13.4 15.08 13.24 15.28C13.0933 15.48 12.9333 15.68 12.8 15.8933C12.52 16.32 12.2267 16.72 11.9867 17.16C11.8533 17.3733 11.7333 17.5867 11.6 17.8C11.48 18.0133 11.36 18.24 11.24 18.4533C11.12 18.6667 11 18.88 10.8933 19.1067C10.7867 19.3333 10.68 19.5467 10.5867 19.76C10.48 19.9733 10.3733 20.1867 10.28 20.4133C10.1867 20.6267 10.0933 20.8533 10.0133 21.0667C9.92001 21.28 9.82668 21.4933 9.74668 21.7067C9.66668 21.92 9.60001 22.1333 9.52001 22.3467C9.44001 22.56 9.37334 22.7733 9.29334 22.9733C9.22668 23.1867 9.17334 23.3867 9.10668 23.6C8.84001 24.4133 8.68001 25.2133 8.50668 25.9333C8.44001 26.3067 8.37334 26.6533 8.32001 26.9867C8.29334 27.16 8.25334 27.32 8.22668 27.48C8.20001 27.64 8.18668 27.8 8.16001 27.9467C8.12001 28.2533 8.08001 28.5333 8.05334 28.7867C8.04001 28.92 8.02668 29.04 8.00001 29.16C7.98668 29.28 7.98668 29.4 7.97334 29.5067C7.93334 29.9733 7.90668 30.32 7.89334 30.56H53.76C53.76 30.4533 53.76 30.3467 53.76 30.24C53.76 15.8933 42.68 4.2 28.8267 3.70667V2.14667C30.1867 2.01333 31.1733 1.58667 31.1733 1.09333C31.1733 0.493334 29.7067 0 27.9067 0C26.1067 0 24.64 0.493334 24.64 1.09333C24.64 1.58667 25.6267 2.01333 26.9867 2.14667V3.64C13.1333 4.13333 2.05334 15.8267 2.05334 30.1733C2.05334 30.28 2.05334 30.3867 2.05334 30.4933H4.82668ZM38.3867 8.72C38.5867 8.78667 38.8267 8.89334 39.0933 9.01334C39.36 9.13334 39.6667 9.28 39.9867 9.45333C40.3067 9.62667 40.6533 9.82667 41 10.0533C41.1733 10.16 41.36 10.2933 41.5333 10.4133C41.6267 10.48 41.7067 10.5467 41.8 10.6133C41.8933 10.68 41.9867 10.7467 42.0667 10.8133C42.24 10.96 42.4267 11.1067 42.6133 11.2533C42.7067 11.3333 42.8 11.4133 42.88 11.4933C42.9733 11.5733 43.0533 11.6533 43.1467 11.7467C43.24 11.8267 43.32 11.92 43.4133 12C43.4933 12.0933 43.5867 12.1733 43.6667 12.2667C43.7467 12.36 43.8267 12.4533 43.92 12.5467C44 12.64 44.0933 12.7333 44.16 12.8267C44.32 13.0267 44.48 13.2133 44.6267 13.4133C44.7067 13.52 44.7733 13.6133 44.8533 13.72C44.92 13.8267 44.9867 13.92 45.0667 14.0267C45.1333 14.1333 45.2 14.2267 45.2667 14.3333C45.3333 14.44 45.3867 14.5467 45.4533 14.6533C45.52 14.76 45.5867 14.8667 45.64 14.9733C45.6933 15.08 45.7467 15.1867 45.8133 15.2933C45.8667 15.4 45.9333 15.5067 45.9733 15.6133C46.0267 15.72 46.0667 15.8267 46.12 15.9333C46.1733 16.04 46.2133 16.1467 46.2667 16.24C46.3067 16.3467 46.3467 16.4533 46.3867 16.5467C46.56 16.9467 46.68 17.3467 46.8133 17.7067C46.8667 17.8933 46.92 18.0667 46.96 18.24C46.9867 18.32 47.0133 18.4 47.0267 18.48C47.04 18.56 47.0667 18.64 47.08 18.72C47.12 18.8667 47.1467 19.0133 47.1733 19.1467C47.1867 19.2133 47.2 19.28 47.2133 19.3333C47.2267 19.4 47.24 19.4533 47.24 19.5067C47.32 19.9467 47.36 20.3867 47.36 20.3867L45.88 20.36C45.88 20.36 45.8667 20.1333 45.8267 19.72C45.8267 19.6667 45.8133 19.6133 45.8133 19.56C45.8 19.5067 45.8 19.44 45.7867 19.3867C45.7733 19.2667 45.76 19.1333 45.7333 18.9867C45.72 18.92 45.72 18.84 45.7067 18.7733C45.6933 18.6933 45.68 18.6267 45.6667 18.5467C45.64 18.3867 45.6133 18.2267 45.5733 18.0533C45.4933 17.72 45.4133 17.3333 45.2933 16.96C45.2667 16.8667 45.24 16.76 45.2 16.6667C45.16 16.5733 45.1333 16.4667 45.0933 16.3733C45.0533 16.28 45.0267 16.1733 44.9867 16.0667C44.9467 15.96 44.9067 15.8667 44.8667 15.76C44.8267 15.6533 44.7867 15.56 44.7333 15.4533C44.6933 15.3467 44.64 15.2533 44.5867 15.1467C44.5333 15.04 44.4933 14.9467 44.44 14.84C44.3867 14.7333 44.3333 14.64 44.28 14.5333C44.2267 14.4267 44.1733 14.3333 44.1067 14.2267C44.04 14.1333 43.9867 14.0267 43.92 13.92C43.8 13.72 43.6667 13.52 43.5333 13.32C43.4667 13.2267 43.4 13.1333 43.3333 13.0267C43.2667 12.9333 43.1867 12.84 43.12 12.7467C43.04 12.6533 42.9733 12.56 42.8933 12.4667C42.8133 12.3733 42.7467 12.28 42.6667 12.2C42.5867 12.1067 42.5067 12.0267 42.44 11.9333C42.36 11.84 42.28 11.76 42.2 11.68C42.04 11.5067 41.88 11.36 41.72 11.2C41.64 11.12 41.56 11.0533 41.48 10.9733C41.4 10.9067 41.32 10.8267 41.24 10.76C41.08 10.6267 40.92 10.48 40.76 10.36C40.44 10.1067 40.12 9.88 39.8267 9.68C39.2267 9.28 38.7067 9 38.3333 8.81334C37.96 8.62667 37.7333 8.54667 37.7333 8.54667C37.7333 8.54667 38 8.57333 38.3867 8.72Z" fill="#333333"/>
</svg>
